# xmcd
#
# Track frame offsets:
#	150
#	13095
#	22895
#	36205
#	49600
#	61295
#	74042
#	87820
#	99695
#	110525
#	125907
#	146825
#
# Disc length: 2116 seconds
#
# Revision: 0
# Processed by: cddbd v1.5.1PL0 Copyright (c) Steve Scherf et al.
# Submitted via: dBpowerAMP V4.0
#
DISCID=ac08420c
DTITLE=Zé Fortuna e Pitangueira - Encontros Sertanejos
DYEAR=1900
DGENRE=Sertanejos
TTITLE0=MENINA DE TRANÇAS LOIRAS
TTITLE1=UM ITALIANO, UM BAIANO E UM PORTUGUÊS
TTITLE2=SAI PRA LÁ MUIÉ
TTITLE3=CHICO SURDO
TTITLE4=O PRIMEIRO AMOR NÃO SE ESQUECE
TTITLE5=SONHO DE CORINTIANO
TTITLE6=ATCHIM
TTITLE7=O TRENZINHO DA VIDA
TTITLE8=ITALIANO LEILOEIRO
TTITLE9=BAILE DO BEPE
TTITLE10=A MENINA E SEUS BICHINHOS
TTITLE11=FILHO DE NINGUÉM
EXTD=Encontros sertanejos. volume 11, capa possui 4 cavalos.
EXTT0=
EXTT1=
EXTT2=
EXTT3=
EXTT4=
EXTT5=
EXTT6=
EXTT7=
EXTT8=
EXTT9=
EXTT10=
EXTT11=
PLAYORDER=
